<?xml version="1.0" standalone="no"?>
<!DOCTYPE svg PUBLIC "-//W3C//DTD SVG 20010904//EN"
 "http://www.w3.org/TR/2001/REC-SVG-20010904/DTD/svg10.dtd">
<svg version="1.0" xmlns="http://www.w3.org/2000/svg"
 width="16.000000pt" height="16.000000pt" viewBox="0 0 16.000000 16.000000"
 preserveAspectRatio="xMidYMid meet">
<metadata>
Created by potrace 1.11, written by Peter Selinger 2001-2013
</metadata>
<g transform="translate(0.000000,16.000000) scale(0.003125,-0.003125)"
fill="#000000" stroke="none">
<path d="M2455 5095 c-123 -26 -200 -54 -313 -115 -227 -122 -424 -342 -414
-462 4 -52 44 -139 105 -230 34 -50 67 -98 72 -107 6 -8 18 -24 29 -35 10 -12
29 -36 43 -54 l26 -33 -28 -67 c-15 -37 -33 -80 -40 -97 -7 -16 -25 -66 -41
-110 -15 -44 -31 -85 -35 -91 -5 -6 -2 -29 7 -51 13 -32 20 -40 36 -35 19 5
19 4 -1 -32 -20 -35 -20 -38 -4 -79 9 -23 31 -66 50 -95 18 -28 33 -55 33 -60
2 -20 15 -62 33 -102 85 -195 186 -326 323 -421 l42 -29 70 19 c45 12 69 14
68 7 -2 -6 -6 -28 -10 -48 -8 -39 -3 -36 -159 -99 -48 -19 -63 -31 -78 -62
-11 -21 -22 -50 -24 -65 -9 -58 -15 -74 -44 -110 -17 -20 -31 -42 -31 -48 0
-6 -43 -71 -95 -144 -52 -73 -95 -136 -95 -140 0 -3 14 -19 30 -35 26 -25 29
-34 24 -64 -4 -20 -10 -41 -15 -47 -5 -6 -7 -13 -4 -16 7 -6 -11 -58 -45 -133
-48 -106 -54 -134 -53 -260 0 -154 9 -222 41 -315 14 -41 26 -82 27 -90 2 -22
128 -150 148 -150 9 0 21 9 27 19 10 20 1 31 -79 84 -23 16 -22 16 37 12 33
-3 72 -1 85 4 24 9 27 6 79 -97 29 -59 94 -168 143 -242 l91 -135 -30 -42
c-25 -37 -27 -44 -15 -59 7 -9 22 -19 32 -23 16 -6 11 -14 -39 -58 -61 -52
-185 -138 -240 -166 -30 -15 -48 -39 -38 -50 7 -7 84 2 124 14 64 21 138 69
202 133 35 34 73 68 85 75 14 7 20 17 17 26 -4 9 -1 21 5 28 11 14 10 20 -14
152 -22 119 -27 147 -40 241 -3 20 -7 39 -9 43 -2 3 -7 29 -10 56 -3 28 -8 68
-11 90 l-6 40 22 -35 c12 -19 30 -47 40 -62 11 -15 19 -29 19 -32 0 -3 45 -80
100 -171 55 -91 100 -168 100 -171 0 -2 12 -23 26 -46 24 -38 25 -45 15 -75
-12 -32 -11 -35 15 -56 16 -12 33 -22 39 -22 16 0 12 -134 -8 -205 -24 -90
-31 -191 -15 -210 24 -28 69 -51 88 -45 11 3 34 25 52 48 48 60 46 96 -11 314
-27 102 -29 115 -16 140 13 25 12 30 -9 58 -14 18 -26 52 -31 85 -4 30 -9 62
-10 70 -1 8 -6 40 -10 70 -4 30 -9 62 -10 70 -9 49 -16 100 -20 135 -3 37 -20
154 -30 215 -2 14 -6 50 -9 80 -3 30 -8 64 -10 75 -19 101 -24 269 -8 288 14
17 23 95 26 219 1 48 5 90 8 94 4 3 29 -14 55 -40 47 -45 49 -46 98 -41 194
22 295 146 293 358 -1 84 7 143 23 163 14 18 -46 94 -74 94 -15 0 -29 10 -38
27 -18 34 -17 99 7 344 7 73 8 72 -57 83 -55 9 -183 -151 -183 -229 1 -48 10
-102 24 -140 6 -15 9 -29 8 -30 -12 -11 -67 -6 -83 7 -11 9 -34 28 -52 42 -29
24 -40 52 -57 141 -10 52 -19 74 -31 79 -9 3 -12 17 -9 43 7 68 14 77 85 123
84 53 110 84 136 164 l19 59 61 17 c136 37 220 99 243 177 20 69 23 146 7 189
-12 36 -12 45 0 68 8 14 23 62 34 107 l20 80 -22 44 c-29 57 -172 249 -384
514 -93 116 -178 226 -188 244 -17 31 -18 79 -3 146 11 51 67 209 80 227 14
18 16 17 45 -16 39 -43 110 -150 140 -208 27 -54 33 -154 14 -232 -8 -30 -17
-65 -20 -77 -10 -40 24 -26 59 25 59 85 66 104 55 137 -13 37 -84 174 -109
209 -116 162 -173 221 -223 231 -78 15 -91 16 -190 20 -78 3 -125 -2 -210 -20z
m-292 -3808 c14 -42 14 -49 1 -54 -8 -3 -20 0 -27 5 -7 6 -23 9 -35 5 -28 -7
-28 -4 3 37 14 19 25 43 25 54 0 29 15 8 33 -47z"/>
</g>
</svg>
